<svg xmlns="http://www.w3.org/2000/svg" viewBox="0 0 64 64" role="img" aria-label="Video Conversion Studio icon">
  <defs>
    <linearGradient id="bg" x1="6" y1="6" x2="58" y2="58" gradientUnits="userSpaceOnUse">
      <stop offset="0" stop-color="#0f3b63" />
      <stop offset="1" stop-color="#0b151f" />
    </linearGradient>
    <linearGradient id="accent" x1="16" y1="18" x2="50" y2="46" gradientUnits="userSpaceOnUse">
      <stop offset="0" stop-color="#53c0ff" />
      <stop offset="1" stop-color="#1b9bff" />
    </linearGradient>
    <linearGradient id="warm" x1="14" y1="40" x2="48" y2="22" gradientUnits="userSpaceOnUse">
      <stop offset="0" stop-color="#ff8b3d" />
      <stop offset="1" stop-color="#ff4e4e" />
    </linearGradient>
  </defs>

  <rect x="4" y="4" width="56" height="56" rx="14" fill="url(#bg)" />
  <rect x="13" y="15" width="30" height="23" rx="5" fill="#132334" stroke="#6fd0ff" stroke-width="2.2" />
  <rect x="16" y="18" width="4.2" height="3.6" rx="0.8" fill="#6fd0ff" />
  <rect x="16" y="24.3" width="4.2" height="3.6" rx="0.8" fill="#6fd0ff" />
  <rect x="16" y="30.6" width="4.2" height="3.6" rx="0.8" fill="#6fd0ff" />
  <polygon points="27,22 35.8,26.5 27,31" fill="#e6f7ff" />

  <path d="M46.5 18.2a11.8 11.8 0 0 1 7.2 7.2" fill="none" stroke="url(#accent)" stroke-width="3.1" stroke-linecap="round" />
  <path d="M52.9 22.1l1.8 4.9-5 .9" fill="url(#accent)" />

  <path d="M17.5 46.2a11.8 11.8 0 0 1-7.2-7.2" fill="none" stroke="url(#warm)" stroke-width="3.1" stroke-linecap="round" />
  <path d="M11.1 42.3l-1.8-4.9 5-.9" fill="url(#warm)" />
  <circle cx="32" cy="32" r="28" fill="none" stroke="#ffffff" stroke-opacity=".08" stroke-width="1.4" />
</svg>
